<?xml version="1.0" encoding="UTF-8" standalone="no"?>
<!-- Created with Inkscape (http://www.inkscape.org/) -->

<svg
   width="1080"
   height="450"
   viewBox="0 0 285.74999 119.0625"
   version="1.1"
   id="svg1"
   xmlns="http://www.w3.org/2000/svg"
   xmlns:svg="http://www.w3.org/2000/svg">
  <defs
     id="defs1" />
  <g
     id="layer1" />
  <path
     d="m 59.936494,7.770344 4.901292,14.248219 1.100176,3.19986 5.206407,15.13509 0.795686,2.31372 0.566377,1.64549 5.435089,15.80113 2.233556,6.49303 3.767911,10.95506 2.202226,6.40119 1.698503,4.93791 2.101368,6.10898 H 86.145214 85.4172 73.788299 71.144369 68.892645 57.631514 56.143522 52.368092 41.474731 41.142675 35.844167 l 3.017336,-7.59634 -3.388865,-9.85174 -4.280408,-12.44313 -4.942642,12.44313 -0.107758,0.27181 -3.608149,9.08367 -3.214691,8.0926 -5.443861,13.705297 -1.48674,3.7435 h 2.774246 10.979195 2.771112 2.406476 9.82326 4.294816 2.039334 8.666698 5.817895 1.672191 7.510762 7.341601 1.30442 6.35483 8.865927 0.936018 5.19891 10.38962 0.56888 l -0.26438,-0.76734 -5.7377,-16.681457 -1.93096,-5.61271 -3.02546,-8.79583 -1.04568,-3.03954 -3.5975,-10.45952 -2.403965,-6.98857 -5.265298,-15.30559 -0.736164,-2.14103 -1.952248,-5.67538 -4.049849,-11.77343 -0.930388,-2.70432 -5.071705,-14.743759 h -4.948909 -0.647199 z"
     id="path952"
     style="stroke-width:1.30756;fill:white" />
  <path
     d="m 180.70056,7.457934 -6.9306,15.000839 -0.10778,0.23307 -2.97974,6.45006 -3.84309,8.31834 -1.83572,3.9728 -5.09488,11.02681 -3.5643,7.71438 -0.66286,1.43536 -2.70344,5.85111 -5.29225,11.45472 1.41907,3.54612 6.0021,15.00147 0.24747,0.61964 0.28632,-0.61964 0.0408,-0.0877 6.89051,-14.91377 1.44162,-3.12007 5.48899,-11.88076 1.17973,-2.55309 1.98984,-4.30734 3.76102,-8.14042 4.89816,-10.60078 2.03244,-4.39882 2.3194,-5.02096 4.30671,-9.32141 0.30449,-0.6591 6.9306,-15.000849 h -11.5418 -1.95852 z"
     style="fill:#ff0000;stroke-width:1.2124;"
     id="path951" />
  <path
     d="m 86.783472,7.457934 5.24212,13.102479 0.759341,1.89836 2.893908,7.23321 3.108191,7.76826 0.9072,2.26739 5.094248,12.73222 2.57439,6.43564 3.31682,8.28954 0.11033,0.27567 4.24155,10.60202 1.76054,4.39882 5.90811,14.76716 0.094,0.23431 2.88639,7.215047 3.11508,7.78581 h 3.39012 8.49503 4.27225 l -4.27225,-10.67784 -1.65278,-4.131297 -0.0771,-0.19172 -6.00208,-15.00147 -1.59012,-3.97403 5.09488,-11.02681 3.56366,-7.71314 0.6635,-1.43598 2.70344,-5.85173 5.29162,-11.45285 1.63898,-3.54676 5.36679,-11.61635 1.56381,-3.38512 0.0896,-0.19296 6.84163,-14.807879 h -8.49503 -4.27162 -3.75727 -6.97195 -5.42757 -4.12504 -5.44762 -6.58412 -4.49281 -3.92391 -7.73944 -4.861198 -2.40021 z m 22.158238,15.000839 h 1.73798 13.51786 0.90031 0.58267 15.00023 0.0414 l -0.0414,0.089 -6.88988,14.91251 -1.44225,3.12133 -5.48772,11.87826 -1.18038,2.55434 -1.98984,4.30734 -2.74542,-6.86168 -4.92322,-12.30554 -1.07825,-2.69405 -4.26411,-10.65841 z"
     style="stroke-width:1.2124;fill:white"
     id="path950" />
  <path
     d="m 213.75029,7.457934 -6.9306,15.000839 -0.50185,1.08577 -5.63369,12.1934 -0.79569,1.7223 -2.22917,4.82549 -4.7008,10.17412 -3.95838,8.56707 -2.97285,6.43378 -0.34396,0.74493 -5.34174,11.56249 -1.2449,2.69342 -6.9306,15.00147 -0.48368,1.0463 -0.99993,2.164007 -5.44762,11.79055 h 5.44762 6.58351 4.49405 l 3.92329,-8.4919 2.3269,-5.036617 0.68041,-1.47234 6.9306,-15.00147 1.04756,-2.26676 4.01538,-8.69113 1.86829,-4.04295 2.7755,-6.00775 4.15511,-8.9931 4.50344,-9.74745 1.69913,-3.6777 0.7274,-1.57446 6.2314,-13.48779 5.39687,13.48779 2.27241,5.68007 0.37152,0.92851 3.35691,8.39103 3.93959,9.84645 2.06249,5.1544 5.60677,14.01344 0.035,0.0884 0.35962,0.89906 6.00209,15.00148 1.27185,3.178337 4.73025,11.8225 h 2.63705 3.69522 9.82514 l -4.55983,-11.39647 -1.44226,-3.604367 -6.0021,-15.00148 -0.2243,-0.56137 -1.29187,-3.22847 -4.48529,-11.21101 -1.8921,-4.72837 -4.11,-10.27248 -3.55864,-8.89537 -0.95483,-2.3858 -1.488,-3.71843 -5.2252,-13.06112 -0.77626,-1.94034 -6.0021,-15.000859 h -1.50929 -0.41037 -14.23774 -0.35149 z"
     style="stroke-width:1.2124;fill:white"
     id="path949" />
</svg>
